<?xml version="1.0" encoding="utf-8"?>
<!-- Generator: Adobe Illustrator 19.0.0, SVG Export Plug-In . SVG Version: 6.00 Build 0)  -->
<svg version="1.1" id="Layer_1" xmlns="http://www.w3.org/2000/svg" xmlns:xlink="http://www.w3.org/1999/xlink" x="0px" y="0px"
	 viewBox="0 0 216 44" style="enable-background:new 0 0 216 44;" xml:space="preserve">
<g id="XMLID_48_">
	<g id="XMLID_28_">
		<path id="XMLID_29_" d="M69.8,15.5c0,1.2-0.4,2.2-1.3,3.1c-0.9,0.9-1.9,1.3-3.1,1.3h-8.4c-1.2,0-2.2,0.4-3,1.2
			c-0.8,0.8-1.3,1.8-1.3,3s0.4,2.2,1.3,3.1c0.8,0.8,1.8,1.3,3,1.3h8.4c1.2,0,2.2,0.4,3.1,1.3c0.8,0.9,1.3,1.9,1.3,3.1
			c0,1.2-0.4,2.2-1.3,3.1c-0.9,0.9-1.9,1.3-3.1,1.3h-8.4c-3.6,0-6.7-1.3-9.2-3.8c-2.5-2.5-3.8-5.6-3.8-9.2c0-3.6,1.3-6.7,3.8-9.2
			c2.5-2.5,5.6-3.8,9.2-3.8h8.4c1.2,0,2.3,0.4,3.1,1.3C69.4,13.3,69.8,14.3,69.8,15.5z"/>
		<path id="XMLID_31_" d="M80,6.8C80,8,79.5,9,78.7,9.9c-0.9,0.9-1.9,1.3-3.1,1.3s-2.2-0.4-3.1-1.3C71.7,9,71.3,8,71.3,6.8
			c0-1.2,0.4-2.2,1.3-3.1c0.8-0.8,1.9-1.3,3.1-1.3s2.2,0.4,3.1,1.3C79.5,4.6,80,5.6,80,6.8z M80,32.8c0,1.2-0.4,2.2-1.3,3.1
			c-0.9,0.9-1.9,1.3-3.1,1.3s-2.2-0.4-3.1-1.3c-0.9-0.8-1.3-1.9-1.3-3.1V18.7c0-1.2,0.4-2.2,1.3-3.1c0.8-0.8,1.9-1.3,3.1-1.3
			s2.2,0.4,3.1,1.3c0.8,0.9,1.3,1.9,1.3,3.1V32.8z"/>
		<path id="XMLID_34_" d="M108.2,26.9c0,0.8-0.4,1.5-1.3,2.1c-0.8,0.6-1.9,0.9-3.1,0.9c-1.2,0-2.2-0.3-3.1-0.9
			c-0.9-0.6-1.3-1.3-1.3-2.1V21c0-0.8-0.4-1.5-1.2-2.1c-0.8-0.6-1.8-0.9-3-0.9c-1.2,0-2.2,0.3-3,0.9C91.5,19.5,91,20.2,91,21v5.9
			c0,0.8-0.4,1.5-1.3,2.1c-0.9,0.6-1.9,0.9-3.1,0.9s-2.2-0.3-3.1-0.9c-0.9-0.6-1.3-1.3-1.3-2.1V21c0-2.5,1.3-4.5,3.8-6.3
			c2.5-1.7,5.6-2.6,9.2-2.6c3.6,0,6.7,0.9,9.2,2.6c2.5,1.7,3.8,3.8,3.8,6.3V26.9z"/>
		<path id="XMLID_36_" d="M136.5,32.8c0,1.2-0.4,2.2-1.3,3.1c-0.8,0.9-1.9,1.3-3.1,1.3h-8.5c-3.6,0-6.7-1.3-9.2-3.8
			c-2.5-2.5-3.8-5.6-3.8-9.2s1.3-6.7,3.8-9.2c2.5-2.5,5.6-3.8,9.2-3.8c3,0,5.7,0.9,8.1,2.8c2.3,1.9,3.9,4.3,4.5,7.2
			c0.1,0.3,0.1,0.6,0.1,1c0,1.2-0.4,2.3-1.3,3.1c-0.8,0.8-1.9,1.3-3.1,1.3c-1.5,0-2.6-0.6-3.4-1.7c-0.6-1.1-1.1-2.2-1.7-3.3
			c-0.7-1.1-1.9-1.7-3.3-1.7c-1.2,0-2.2,0.4-3,1.2c-0.8,0.8-1.3,1.8-1.3,3s0.4,2.2,1.3,3.1c0.8,0.8,1.8,1.3,3,1.3h8.5
			c1.2,0,2.2,0.4,3.1,1.3C136.1,30.6,136.5,31.6,136.5,32.8z"/>
		<path id="XMLID_38_" d="M164.7,24.2c0,1.2-0.4,2.2-1.3,3.1c-0.9,0.9-1.9,1.3-3.1,1.3h-12.9v4.2c0,1.2-0.4,2.2-1.3,3.1
			c-0.9,0.9-1.9,1.3-3.1,1.3s-2.2-0.4-3.1-1.3c-0.9-0.9-1.3-1.9-1.3-3.1V15.4c0-3.6,1.3-6.7,3.8-9.2c2.5-2.5,5.6-3.8,9.2-3.8h8.6
			c1.2,0,2.2,0.4,3.1,1.3c0.8,0.9,1.3,1.9,1.3,3.1c0,1.2-0.4,2.2-1.3,3.1c-0.9,0.9-1.9,1.3-3.1,1.3h-8.6c-1.2,0-2.2,0.4-3,1.3
			c-0.8,0.8-1.3,1.9-1.3,3.1v4.4h12.9c1.2,0,2.3,0.4,3.1,1.3C164.3,21.9,164.7,23,164.7,24.2z"/>
		<path id="XMLID_40_" d="M175,6.8c0,1.2-0.4,2.2-1.3,3.1c-0.9,0.9-1.9,1.3-3.1,1.3s-2.2-0.4-3.1-1.3c-0.9-0.8-1.3-1.9-1.3-3.1
			c0-1.2,0.4-2.2,1.3-3.1c0.8-0.8,1.9-1.3,3.1-1.3s2.2,0.4,3.1,1.3C174.5,4.6,175,5.6,175,6.8z M175,32.8c0,1.2-0.4,2.2-1.3,3.1
			c-0.9,0.9-1.9,1.3-3.1,1.3s-2.2-0.4-3.1-1.3c-0.9-0.8-1.3-1.9-1.3-3.1V18.7c0-1.2,0.4-2.2,1.3-3.1c0.8-0.8,1.9-1.3,3.1-1.3
			s2.2,0.4,3.1,1.3c0.8,0.9,1.3,1.9,1.3,3.1V32.8z"/>
		<path id="XMLID_43_" d="M186,32.8c0,1.2-0.4,2.2-1.3,3.1c-0.9,0.9-1.9,1.3-3.1,1.3s-2.2-0.4-3.1-1.3c-0.9-0.8-1.3-1.9-1.3-3.1v-26
			c0-1.2,0.4-2.2,1.3-3.1c0.8-0.8,1.9-1.3,3.1-1.3s2.2,0.4,3.1,1.3c0.8,0.9,1.3,1.9,1.3,3.1V32.8z"/>
		<path id="XMLID_45_" d="M214.4,24.1c0,3.6-1.2,6.7-3.7,9.2c-2.5,2.5-5.6,3.8-9.2,3.8c-3.6,0-6.7-1.3-9.2-3.8
			c-2.5-2.5-3.8-5.6-3.8-9.2c0-3.6,1.3-6.7,3.8-9.2c2.5-2.5,5.6-3.8,9.2-3.8c3.6,0,6.7,1.3,9.2,3.8
			C213.2,17.5,214.4,20.5,214.4,24.1z M205.8,24.1c0-1.2-0.4-2.2-1.2-3c-0.8-0.8-1.8-1.3-3-1.3c-1.2,0-2.2,0.4-3,1.2
			c-0.8,0.8-1.3,1.8-1.3,3s0.4,2.2,1.3,3.1c0.8,0.8,1.8,1.3,3,1.3c1.2,0,2.2-0.4,3-1.3C205.4,26.3,205.8,25.3,205.8,24.1z"/>
		<path id="XMLID_1_" d="M105.4,38.5H85.2c-1.6,0-2.9-1.3-2.9-2.9v0c0-1.6,1.3-2.9,2.9-2.9h20.2c1.6,0,2.9,1.3,2.9,2.9v0
			C108.3,37.2,107,38.5,105.4,38.5z"/>
	</g>
	<g id="XMLID_3_">
		<path id="XMLID_4_" d="M29.4,4.6c0,1.4-1.4,2.6-3.2,2.6h-10c-1.8,0-3.2-1.1-3.2-2.5s-1.4-2.5-3.2-2.5H5.8c-1.8,0-3.2,1.4-3.2,3.2
			v32.7c0,1.8,1.4,3.2,3.2,3.2h3.8c1.8,0,3.2-1.1,3.2-2.4s1.4-2.4,3.2-2.4h10c1.8,0,3.2,1,3.2,2.3s1.4,2.3,3.2,2.3h3.8
			c1.8,0,3.2-1.4,3.2-3.2V5.2c0-1.8-1.4-3.2-3.2-3.2h-3.8C30.9,2,29.4,3.1,29.4,4.6z M7.8,4.7c1.3,0,2.4,0.5,2.4,1.2v1.2
			c0,0,0,0.5,0,1.2S9.7,9.6,9.1,9.6H7.9c0,0-0.6,0-1.3,0S5.3,8.5,5.3,7.1S6.4,4.7,7.8,4.7z M6.6,14.3h1.3c0,0,0.5,0,1.1,0
			s1.1,1.1,1.1,2.4s-0.5,2.4-1.1,2.4H7.9c0,0-0.6,0-1.3,0s-1.3-1.1-1.3-2.4S5.9,14.3,6.6,14.3z M6.6,24h1.3c0,0,0.5,0,1.1,0
			s1.1,1.1,1.1,2.4s-0.5,2.4-1.1,2.4H7.9c0,0-0.6,0-1.3,0s-1.3-1.1-1.3-2.4S5.9,24,6.6,24z M7.8,38.5c-1.3,0-2.4-1.1-2.4-2.4
			s0.6-2.4,1.3-2.4h1.3c0,0,0.5,0,1.1,0s1.1,0.7,1.1,1.5v1.5c0,0,0,0.4,0,1S9.1,38.5,7.8,38.5z M24.4,30.5h-6.6
			c-1.8,0-3.2-1.4-3.2-3.2v-0.2c0-1.8,1.4-3.2,3.2-3.2h6.6c1.8,0,3.2,1.4,3.2,3.2v0.2C27.6,29.1,26.2,30.5,24.4,30.5z M24.4,19.4
			h-6.6c-1.8,0-3.2-1.4-3.2-3.2v-0.2c0-1.8,1.4-3.2,3.2-3.2h6.6c1.8,0,3.2,1.4,3.2,3.2v0.2C27.6,17.9,26.2,19.4,24.4,19.4z
			 M34.6,38.5c-1.3,0-2.4-0.4-2.4-1v-1c0,0,0-0.7,0-1.5s0.5-1.5,1.2-1.5h1.2c0,0,0.5,0,1.2,0s1.2,1.1,1.2,2.4
			C37,37.4,35.9,38.5,34.6,38.5z M35.8,28.8h-1.2c0,0-0.5,0-1.2,0c-0.7,0-1.2-1.1-1.2-2.4s0.5-2.4,1.2-2.4h1.2c0,0,0.5,0,1.2,0
			s1.2,1.1,1.2,2.4S36.5,28.8,35.8,28.8z M35.8,19.2h-1.2c0,0-0.5,0-1.2,0c-0.7,0-1.2-1.1-1.2-2.4s0.5-2.4,1.2-2.4h1.2
			c0,0,0.5,0,1.2,0s1.2,1.1,1.2,2.4S36.5,19.2,35.8,19.2z M35.8,9.6h-1.2c0,0-0.5,0-1.2,0c-0.7,0-1.2-0.5-1.2-1.2V7.1
			c0,0,0-0.5,0-1.2s1.1-1.2,2.4-1.2S37,5.8,37,7.1S36.5,9.6,35.8,9.6z"/>
	</g>
</g>
</svg>
