<?xml version="1.0" encoding="utf-8"?>
<!-- Generator: Adobe Illustrator 19.0.0, SVG Export Plug-In . SVG Version: 6.00 Build 0)  -->
<svg version="1.1" id="Layer_1" xmlns="http://www.w3.org/2000/svg" xmlns:xlink="http://www.w3.org/1999/xlink" x="0px" y="0px"
	 viewBox="8 29 216 44" style="enable-background:new 8 29 216 44;" xml:space="preserve">
<style type="text/css">
	.st0{fill:#FFFFFF;}
</style>
<g id="XMLID_48_">
	<g id="XMLID_28_">
		<path id="XMLID_29_" class="st0" d="M77.8,44.5c0,1.2-0.4,2.2-1.3,3.1c-0.9,0.9-1.9,1.3-3.1,1.3H65c-1.2,0-2.2,0.4-3,1.2
			c-0.8,0.8-1.3,1.8-1.3,3c0,1.2,0.4,2.2,1.3,3.1c0.8,0.8,1.8,1.3,3,1.3h8.4c1.2,0,2.2,0.4,3.1,1.3c0.8,0.9,1.3,1.9,1.3,3.1
			s-0.4,2.2-1.3,3.1c-0.9,0.9-1.9,1.3-3.1,1.3H65c-3.6,0-6.7-1.3-9.2-3.8C53.3,60,52,56.9,52,53.3s1.3-6.7,3.8-9.2s5.6-3.8,9.2-3.8
			h8.4c1.2,0,2.3,0.4,3.1,1.3C77.4,42.3,77.8,43.3,77.8,44.5z"/>
		<path id="XMLID_31_" class="st0" d="M88,35.8c0,1.2-0.5,2.2-1.3,3.1c-0.9,0.9-1.9,1.3-3.1,1.3s-2.2-0.4-3.1-1.3
			c-0.8-0.9-1.2-1.9-1.2-3.1s0.4-2.2,1.3-3.1c0.8-0.8,1.9-1.3,3.1-1.3s2.2,0.4,3.1,1.3C87.5,33.6,88,34.6,88,35.8z M88,61.8
			c0,1.2-0.4,2.2-1.3,3.1c-0.9,0.9-1.9,1.3-3.1,1.3s-2.2-0.4-3.1-1.3c-0.9-0.8-1.3-1.9-1.3-3.1V47.7c0-1.2,0.4-2.2,1.3-3.1
			c0.8-0.8,1.9-1.3,3.1-1.3s2.2,0.4,3.1,1.3c0.8,0.9,1.3,1.9,1.3,3.1V61.8z"/>
		<path id="XMLID_34_" class="st0" d="M116.2,55.9c0,0.8-0.4,1.5-1.3,2.1c-0.8,0.6-1.9,0.9-3.1,0.9s-2.2-0.3-3.1-0.9
			s-1.3-1.3-1.3-2.1V50c0-0.8-0.4-1.5-1.2-2.1c-0.8-0.6-1.8-0.9-3-0.9s-2.2,0.3-3,0.9C99.5,48.5,99,49.2,99,50v5.9
			c0,0.8-0.4,1.5-1.3,2.1s-1.9,0.9-3.1,0.9s-2.2-0.3-3.1-0.9s-1.3-1.3-1.3-2.1V50c0-2.5,1.3-4.5,3.8-6.3c2.5-1.7,5.6-2.6,9.2-2.6
			s6.7,0.9,9.2,2.6s3.8,3.8,3.8,6.3V55.9z"/>
		<path id="XMLID_36_" class="st0" d="M144.5,61.8c0,1.2-0.4,2.2-1.3,3.1c-0.8,0.9-1.9,1.3-3.1,1.3h-8.5c-3.6,0-6.7-1.3-9.2-3.8
			c-2.5-2.5-3.8-5.6-3.8-9.2s1.3-6.7,3.8-9.2s5.6-3.8,9.2-3.8c3,0,5.7,0.9,8.1,2.8c2.3,1.9,3.9,4.3,4.5,7.2c0.1,0.3,0.1,0.6,0.1,1
			c0,1.2-0.4,2.3-1.3,3.1c-0.8,0.8-1.9,1.3-3.1,1.3c-1.5,0-2.6-0.6-3.4-1.7c-0.6-1.1-1.1-2.2-1.7-3.3c-0.7-1.1-1.9-1.7-3.3-1.7
			c-1.2,0-2.2,0.4-3,1.2c-0.8,0.8-1.3,1.8-1.3,3c0,1.2,0.4,2.2,1.3,3.1c0.8,0.8,1.8,1.3,3,1.3h8.5c1.2,0,2.2,0.4,3.1,1.3
			C144.1,59.6,144.5,60.6,144.5,61.8z"/>
		<path id="XMLID_38_" class="st0" d="M172.7,53.2c0,1.2-0.4,2.2-1.3,3.1c-0.9,0.9-1.9,1.3-3.1,1.3h-12.9v4.2c0,1.2-0.4,2.2-1.3,3.1
			c-0.9,0.9-1.9,1.3-3.1,1.3s-2.2-0.4-3.1-1.3c-0.9-0.9-1.3-1.9-1.3-3.1V44.4c0-3.6,1.3-6.7,3.8-9.2s5.6-3.8,9.2-3.8h8.6
			c1.2,0,2.2,0.4,3.1,1.3c0.8,0.9,1.3,1.9,1.3,3.1s-0.4,2.2-1.3,3.1c-0.9,0.9-1.9,1.3-3.1,1.3h-8.6c-1.2,0-2.2,0.4-3,1.3
			c-0.8,0.8-1.3,1.9-1.3,3.1V49h12.9c1.2,0,2.3,0.4,3.1,1.3C172.3,50.9,172.7,52,172.7,53.2z"/>
		<path id="XMLID_40_" class="st0" d="M183,35.8c0,1.2-0.4,2.2-1.3,3.1c-0.9,0.9-1.9,1.3-3.1,1.3s-2.2-0.4-3.1-1.3
			c-0.9-0.8-1.3-1.9-1.3-3.1s0.4-2.2,1.3-3.1c0.8-0.8,1.9-1.3,3.1-1.3s2.2,0.4,3.1,1.3C182.5,33.6,183,34.6,183,35.8z M183,61.8
			c0,1.2-0.4,2.2-1.3,3.1c-0.9,0.9-1.9,1.3-3.1,1.3s-2.2-0.4-3.1-1.3c-0.9-0.8-1.3-1.9-1.3-3.1V47.7c0-1.2,0.4-2.2,1.3-3.1
			c0.8-0.8,1.9-1.3,3.1-1.3s2.2,0.4,3.1,1.3c0.8,0.9,1.3,1.9,1.3,3.1V61.8z"/>
		<path id="XMLID_43_" class="st0" d="M194,61.8c0,1.2-0.4,2.2-1.3,3.1c-0.9,0.9-1.9,1.3-3.1,1.3s-2.2-0.4-3.1-1.3
			c-0.9-0.8-1.3-1.9-1.3-3.1v-26c0-1.2,0.4-2.2,1.3-3.1c0.8-0.8,1.9-1.3,3.1-1.3s2.2,0.4,3.1,1.3c0.8,0.9,1.3,1.9,1.3,3.1V61.8z"/>
		<path id="XMLID_45_" class="st0" d="M222.4,53.1c0,3.6-1.2,6.7-3.7,9.2c-2.5,2.5-5.6,3.8-9.2,3.8c-3.6,0-6.7-1.3-9.2-3.8
			c-2.5-2.5-3.8-5.6-3.8-9.2s1.3-6.7,3.8-9.2s5.6-3.8,9.2-3.8c3.6,0,6.7,1.3,9.2,3.8C221.2,46.5,222.4,49.5,222.4,53.1z M213.8,53.1
			c0-1.2-0.4-2.2-1.2-3c-0.8-0.8-1.8-1.3-3-1.3s-2.2,0.4-3,1.2c-0.8,0.8-1.3,1.8-1.3,3c0,1.2,0.4,2.2,1.3,3.1c0.8,0.8,1.8,1.3,3,1.3
			s2.2-0.4,3-1.3C213.4,55.3,213.8,54.3,213.8,53.1z"/>
		<path id="XMLID_1_" class="st0" d="M113.4,67.5H93.2c-1.6,0-2.9-1.3-2.9-2.9l0,0c0-1.6,1.3-2.9,2.9-2.9h20.2
			c1.6,0,2.9,1.3,2.9,2.9l0,0C116.3,66.2,115,67.5,113.4,67.5z"/>
	</g>
	<g id="XMLID_2_">
		<path id="XMLID_16_" class="st0" d="M44.8,57.5c-0.6,0-1.1,0-1.1,0h-1.1c-0.6,0-1.1,0.5-1.1,1.2c0,0.7,0,1.2,0,1.2v0.8
			c0,0.2,0.2,0.4,0.6,0.5c1.2-1.1,2.2-2.3,3.1-3.6C45,57.5,44.9,57.5,44.8,57.5z"/>
		<path id="XMLID_17_" class="st0" d="M38.8,61.6c0-1-1.4-1.8-3-1.8h-9.4c-1.7,0-3,0.9-3,1.9c0,0.6-0.5,1.2-1.3,1.5
			c2.4,1.8,5.2,3.3,8.3,4.2h0c3.5-1,6.6-2.6,9.3-4.6C39.2,62.6,38.8,62.1,38.8,61.6z"/>
		<path id="XMLID_18_" class="st0" d="M16.5,32.5c-0.2-0.1-0.4-0.1-0.6-0.2l-2.7-0.9v14.9c0,1.7,0.2,3.3,0.6,5V35
			C13.8,33.7,15,32.6,16.5,32.5z"/>
		<path id="XMLID_19_" class="st0" d="M26.4,36.4h9.4c1.7,0,3-0.9,3-2c0-0.1,0-0.2,0-0.3c-5.1,0.8-10.4,0.8-15.5,0
			c0,0.1,0.1,0.2,0.1,0.3C23.4,35.5,24.8,36.4,26.4,36.4z"/>
		<path id="XMLID_20_" class="st0" d="M19.8,49.8c-0.6,0-1.1,0-1.1,0h-1.2c-0.7,0-1.2,0.9-1.2,1.9c0,1.1,0.5,1.9,1.2,1.9
			c0.7,0,1.2,0,1.2,0h1.1c0.6,0,1.1-0.9,1.1-1.9C20.9,50.6,20.4,49.8,19.8,49.8z"/>
		<path id="XMLID_21_" class="st0" d="M20.9,60.6c0-0.4,0-0.8,0-0.8v-1.2c0-0.7-0.5-1.2-1.1-1.2c-0.6,0-1.1,0-1.1,0h-1.2
			c-0.3,0-0.5,0.1-0.7,0.4c0.8,1.2,1.8,2.4,2.9,3.4C20.4,61.1,20.9,60.8,20.9,60.6z"/>
		<path id="XMLID_22_" class="st0" d="M42.5,38.3c0.6,0,1.1,0,1.1,0h1.1c0.6,0,1.1-0.9,1.1-1.9c0-1.1-1-1.9-2.3-1.9
			c-1.3,0-2.3,0.4-2.3,1c0,0.5,0,1,0,1v1C41.4,37.9,41.9,38.3,42.5,38.3z"/>
		<path id="XMLID_23_" class="st0" d="M34.2,40.8H28c-1.7,0-3,1.2-3,2.6v0.2c0,1.4,1.4,2.6,3,2.6h6.2c1.7,0,3-1.2,3-2.6v-0.2
			C37.2,42,35.8,40.8,34.2,40.8z"/>
		<path id="XMLID_24_" class="st0" d="M44.8,49.8c-0.6,0-1.1,0-1.1,0h-1.1c-0.6,0-1.1,0.9-1.1,1.9c0,1.1,0.5,1.9,1.1,1.9
			c0.6,0,1.1,0,1.1,0h1.1c0.6,0,1.1-0.9,1.1-1.9C45.9,50.6,45.4,49.8,44.8,49.8z"/>
		<path id="XMLID_25_" class="st0" d="M44.8,42.1c-0.6,0-1.1,0-1.1,0h-1.1c-0.6,0-1.1,0.9-1.1,1.9s0.5,1.9,1.1,1.9
			c0.6,0,1.1,0,1.1,0h1.1c0.6,0,1.1-0.9,1.1-1.9S45.4,42.1,44.8,42.1z"/>
		<path id="XMLID_26_" class="st0" d="M49.1,31.4l-2.7,0.9c-0.1,0-0.2,0.1-0.3,0.1c1.3,0.3,2.3,1.3,2.3,2.5v15.4
			c0.4-1.6,0.6-3.3,0.6-5V31.4z"/>
		<path id="XMLID_27_" class="st0" d="M34.2,49.7H28c-1.7,0-3,1.2-3,2.6v0.2c0,1.4,1.4,2.6,3,2.6h6.2c1.7,0,3-1.2,3-2.6v-0.2
			C37.2,50.8,35.8,49.7,34.2,49.7z"/>
		<path id="XMLID_4_" class="st0" d="M19.8,42.1c-0.6,0-1.1,0-1.1,0h-1.2c-0.7,0-1.2,0.9-1.2,1.9c0,1.1,0.5,1.9,1.2,1.9
			c0.7,0,1.2,0,1.2,0h1.1c0.6,0,1.1-0.9,1.1-1.9C20.9,43,20.4,42.1,19.8,42.1z"/>
		<path id="XMLID_3_" class="st0" d="M18.6,34.4c-1.3,0-2.3,0.9-2.3,1.9c0,1.1,0.5,1.9,1.2,1.9c0.7,0,1.2,0,1.2,0h1.1
			c0.6,0,1.1-0.4,1.1-1c0-0.5,0-1,0-1v-1C20.9,34.9,19.9,34.4,18.6,34.4z"/>
		<path id="XMLID_30_" class="st0" d="M20.4,32.5h-3.6c-0.1,0-0.2,0-0.3,0c2.2,0.7,4.5,1.2,6.9,1.6C23.1,33.1,21.9,32.5,20.4,32.5z"
			/>
		<path id="XMLID_32_" class="st0" d="M45.5,32.3h-3.6c-1.5,0-2.8,0.8-3,1.8c2.5-0.4,4.9-1,7.2-1.7C45.9,32.3,45.7,32.3,45.5,32.3z"
			/>
	</g>
</g>
</svg>
